<svg width="147" height="50" viewBox="0 0 147 50" fill="none" xmlns="http://www.w3.org/2000/svg">
<path fill-rule="evenodd" clip-rule="evenodd" d="M23.8238 28.3288L20.5368 25.988C19.1751 25.0208 18.8695 23.1468 19.8475 21.8034C20.8254 20.4567 22.7202 20.1511 24.0785 21.1216L27.3655 23.4625C28.7271 24.4297 29.0361 26.3037 28.0548 27.6471C27.0768 28.9904 25.1821 29.296 23.8238 28.3288ZM36.224 29.7698L37.8675 30.9419L46.9916 18.4082C47.8609 17.2127 47.5892 15.5435 46.377 14.6838L42.5535 11.9567C41.657 11.322 40.4176 11.2044 39.5245 11.8425C37.7248 13.1288 35.2256 13.1993 33.3275 11.8459C31.4293 10.4924 30.7026 8.1248 31.3648 6.0325C31.6941 4.9913 31.1882 3.8663 30.2951 3.2282L26.4682 0.504502C25.2594 -0.358618 23.5717 -0.0865877 22.699 1.109L13.5783 13.6426L15.2218 14.8147C16.5801 15.782 16.8891 17.656 15.9111 18.9993C14.9332 20.3427 13.0384 20.6483 11.6767 19.6811L10.0332 18.509L0.508404 31.5901C-0.360876 32.789 -0.0892259 34.4548 1.123 35.3179L4.9465 38.0416C5.843 38.6797 7.0824 38.7972 7.9755 38.1591C9.7752 36.8729 12.2744 36.8023 14.1725 38.1558C16.0707 39.5092 16.7974 41.8735 16.1352 43.9692C15.8059 45.007 16.3118 46.1354 17.2049 46.7735L21.0318 49.4972C22.2406 50.3569 23.9283 50.0882 24.801 48.8893L34.3224 35.8082L32.6789 34.6361C31.3206 33.6689 31.0116 31.7949 31.9896 30.4516C32.9675 29.1082 34.8623 28.8026 36.224 29.7698Z" fill="#3366FF"/>
<path d="M81.52 17.064L76.84 33.816H72.88L69.736 21.888L66.448 33.816L62.512 33.84L58 17.064H61.6L64.552 30.072L67.96 17.064H71.704L74.92 30L77.896 17.064H81.52ZM97.0739 26.88C97.0739 27.36 97.0419 27.792 96.9779 28.176H87.2579C87.3379 29.136 87.6739 29.888 88.2659 30.432C88.8579 30.976 89.5859 31.248 90.4499 31.248C91.6979 31.248 92.5859 30.712 93.1139 29.64H96.7379C96.3539 30.92 95.6179 31.976 94.5299 32.808C93.4419 33.624 92.1059 34.032 90.5219 34.032C89.2419 34.032 88.0899 33.752 87.0659 33.192C86.0579 32.616 85.2659 31.808 84.6899 30.768C84.1299 29.728 83.8499 28.528 83.8499 27.168C83.8499 25.792 84.1299 24.584 84.6899 23.544C85.2499 22.504 86.0339 21.704 87.0419 21.144C88.0499 20.584 89.2099 20.304 90.5219 20.304C91.7859 20.304 92.9139 20.576 93.9059 21.12C94.9139 21.664 95.6899 22.44 96.2339 23.448C96.7939 24.44 97.0739 25.584 97.0739 26.88ZM93.5939 25.92C93.5779 25.056 93.2659 24.368 92.6579 23.856C92.0499 23.328 91.3059 23.064 90.4259 23.064C89.5939 23.064 88.8899 23.32 88.3139 23.832C87.7539 24.328 87.4099 25.024 87.2819 25.92H93.5939Z" fill="#3366FF"/>
<path d="M104.438 23.28V29.712C104.438 30.16 104.542 30.488 104.75 30.696C104.974 30.888 105.342 30.984 105.854 30.984H107.414V33.816H105.302C102.47 33.816 101.054 32.44 101.054 29.688V23.28H99.4704V20.52H101.054V17.232H104.438V20.52H107.414V23.28H104.438ZM112.535 18.936C111.943 18.936 111.447 18.752 111.047 18.384C110.663 18 110.471 17.528 110.471 16.968C110.471 16.408 110.663 15.944 111.047 15.576C111.447 15.192 111.943 15 112.535 15C113.127 15 113.615 15.192 113.999 15.576C114.399 15.944 114.599 16.408 114.599 16.968C114.599 17.528 114.399 18 113.999 18.384C113.615 18.752 113.127 18.936 112.535 18.936ZM114.191 20.52V33.816H110.831V20.52H114.191ZM117.647 27.168C117.647 25.792 117.927 24.592 118.487 23.568C119.047 22.528 119.823 21.728 120.815 21.168C121.807 20.592 122.943 20.304 124.223 20.304C125.871 20.304 127.231 20.72 128.303 21.552C129.391 22.368 130.119 23.52 130.487 25.008H126.863C126.671 24.432 126.343 23.984 125.879 23.664C125.431 23.328 124.871 23.16 124.199 23.16C123.239 23.16 122.479 23.512 121.919 24.216C121.359 24.904 121.079 25.888 121.079 27.168C121.079 28.432 121.359 29.416 121.919 30.12C122.479 30.808 123.239 31.152 124.199 31.152C125.559 31.152 126.447 30.544 126.863 29.328H130.487C130.119 30.768 129.391 31.912 128.303 32.76C127.215 33.608 125.855 34.032 124.223 34.032C122.943 34.032 121.807 33.752 120.815 33.192C119.823 32.616 119.047 31.816 118.487 30.792C117.927 29.752 117.647 28.544 117.647 27.168ZM141.82 33.816L137.308 28.152V33.816H133.948V16.056H137.308V26.16L141.772 20.52H146.14L140.284 27.192L146.188 33.816H141.82Z" fill="#FF3D71"/>
</svg>
